<svg xmlns="http://www.w3.org/2000/svg" width="89" height="89" viewBox="0 0 89 89">
  <g id="comprou-ganhou" transform="translate(-732 -1244)">
    <g id="Grupo_1372" data-name="Grupo 1372" transform="translate(753.431 1265.246)">
      <g id="Grupo_1341" data-name="Grupo 1341" transform="translate(3.081 10.37)">
        <path id="Caminho_331" data-name="Caminho 331" d="M21.31,129.084c0,1.486,1.617,2.686,3.616,2.686H57.473c2,0,3.616-1.2,3.616-2.686V107.59H21.31Z" transform="translate(-21.31 -95.631)" fill="none" stroke="#71c3ff" stroke-linecap="round" stroke-linejoin="round" stroke-miterlimit="10" stroke-width="2"/>
        <line id="Linha_33" data-name="Linha 33" y2="36.139" transform="translate(12.771 0)" fill="none" stroke="#71c3ff" stroke-linecap="round" stroke-linejoin="round" stroke-miterlimit="10" stroke-width="2"/>
        <line id="Linha_34" data-name="Linha 34" y2="36.139" transform="translate(25.444 0)" fill="none" stroke="#71c3ff" stroke-linecap="round" stroke-linejoin="round" stroke-miterlimit="10" stroke-width="2"/>
      </g>
      <g id="Grupo_1342" data-name="Grupo 1342" transform="translate(9.034)">
        <path id="Caminho_332" data-name="Caminho 332" d="M62.55,17.124s-.908-1.062-5.4-6.779C49.19.228,39.071,20.564,62.55,17.124Z" transform="translate(-47.996 -7.495)" fill="none" stroke="#71c3ff" stroke-linecap="round" stroke-linejoin="round" stroke-miterlimit="10" stroke-width="2"/>
        <path id="Caminho_333" data-name="Caminho 333" d="M107.7,17.124s.908-1.062,5.4-6.779C121.06.228,131.179,20.564,107.7,17.124Z" transform="translate(-94.381 -7.495)" fill="none" stroke="#71c3ff" stroke-linecap="round" stroke-linejoin="round" stroke-miterlimit="10" stroke-width="2"/>
      </g>
      <path id="Caminho_334" data-name="Caminho 334" d="M50.293,64.83H10.648A3.148,3.148,0,0,1,7.5,61.682V55.588a3.148,3.148,0,0,1,3.148-3.148H50.293a3.148,3.148,0,0,1,3.148,3.148v6.1A3.147,3.147,0,0,1,50.293,64.83Z" transform="translate(-7.5 -42.414)" fill="none" stroke="#71c3ff" stroke-linecap="round" stroke-linejoin="round" stroke-miterlimit="10" stroke-width="2"/>
    </g>
    <g id="Elipse_36" data-name="Elipse 36" transform="translate(732 1244)" fill="none" stroke="#71c3ff" stroke-width="2">
      <circle cx="44.5" cy="44.5" r="44.5" stroke="none"/>
      <circle cx="44.5" cy="44.5" r="43.5" fill="none"/>
    </g>
  </g>
</svg>
