<svg xmlns="http://www.w3.org/2000/svg" width="23.594" height="23.597" viewBox="0 0 23.594 23.597">
  <g id="icon-facebook" transform="translate(-33.025)">
    <path id="Caminho_663" data-name="Caminho 663" d="M312.457,6.16V17.436A6.167,6.167,0,0,1,306.3,23.6H295.022a6.167,6.167,0,0,1-6.159-6.16V6.16A6.167,6.167,0,0,1,295.022,0H306.3a6.167,6.167,0,0,1,6.159,6.16" transform="translate(-255.838)" fill="#fff"/>
    <path id="Caminho_664" data-name="Caminho 664" d="M356.95,40.752v-3.41h-3.014a4.328,4.328,0,0,0-4.328,4.328V44.79h-3.063v3.56h3.063v8.32h3.739V48.295h2.8l.534-3.534h-3.334V42.245a1.493,1.493,0,0,1,1.493-1.493Z" transform="translate(-306.925 -33.073)" fill="#103046"/>
  </g>
</svg>
