<svg xmlns="http://www.w3.org/2000/svg" xmlns:xlink="http://www.w3.org/1999/xlink" width="298.094" height="243.512" viewBox="0 0 298.094 243.512">
  <defs>
    <linearGradient id="linear-gradient" x1="0.208" x2="0.912" y2="0.792" gradientUnits="objectBoundingBox">
      <stop offset="0" stop-color="#f3f"/>
      <stop offset="1" stop-color="#ff1075"/>
    </linearGradient>
    <clipPath id="clip-path">
      <rect id="Retângulo_2173" data-name="Retângulo 2173" width="209.931" height="209.945" fill="none"/>
    </clipPath>
    <clipPath id="clip-path-2">
      <path id="Caminho_654" data-name="Caminho 654" d="M19.77,104.98a85.2,85.2,0,1,1,85.2,85.182,85.3,85.3,0,0,1-85.2-85.182M104.966,0A104.973,104.973,0,1,0,209.931,104.98,105.1,105.1,0,0,0,104.966,0Z" fill="#e0e0e0"/>
    </clipPath>
    <clipPath id="clip-path-3">
      <rect id="Retângulo_2175" data-name="Retângulo 2175" width="209.931" height="209.945" fill="url(#linear-gradient)"/>
    </clipPath>
  </defs>
  <g id="Grupo_3175" data-name="Grupo 3175" transform="translate(-1201 -3295.916)">
    <g id="Grupo_3173" data-name="Grupo 3173" transform="translate(1244.804 3295.916)">
      <g id="Grupo_3168" data-name="Grupo 3168" transform="translate(0 0)">
        <g id="Grupo_3167" data-name="Grupo 3167" clip-path="url(#clip-path)">
          <path id="Caminho_653" data-name="Caminho 653" d="M24.075,16.073c0,6.89-4.359,10.49-9.126,10.49-5.02,0-8.971-3.754-8.971-9.941,0-5.878,3.6-10.335,9.224-10.335,5.681,0,8.872,4.148,8.872,9.786M11.7,16.425c0,3.445,1.167,5.934,3.4,5.934,2.179,0,3.248-2.236,3.248-5.934,0-3.347-.914-5.934-3.3-5.934-2.278,0-3.347,2.643-3.347,5.934m3.656,23.946L34.269,6.287h4.162L19.463,40.371Zm32.453-10.6c0,6.89-4.359,10.49-9.126,10.49-4.964,0-8.929-3.754-8.971-9.941,0-5.878,3.6-10.349,9.224-10.349,5.681,0,8.873,4.162,8.873,9.8m-12.317.352c-.056,3.445,1.111,5.934,3.347,5.934,2.179,0,3.248-2.236,3.248-5.934,0-3.347-.858-5.934-3.248-5.934-2.334,0-3.347,2.629-3.347,5.934" transform="translate(78.079 82.116)" fill="#fe1eac"/>
        </g>
      </g>
      <g id="Grupo_3170" data-name="Grupo 3170" transform="translate(0 0.002)" style="mix-blend-mode: multiply;isolation: isolate">
        <g id="Grupo_3169" data-name="Grupo 3169" clip-path="url(#clip-path-2)">
          <rect id="Retângulo_2174" data-name="Retângulo 2174" width="209.931" height="209.945" transform="translate(0 -0.001)" fill="#e0e0e0"/>
        </g>
      </g>
      <g id="Grupo_3172" data-name="Grupo 3172" transform="translate(0 0)">
        <g id="Grupo_3171" data-name="Grupo 3171" clip-path="url(#clip-path-3)">
          <path id="Caminho_655" data-name="Caminho 655" d="M104.966,209.932A104.966,104.966,0,1,1,104.966,0a9.885,9.885,0,1,1,0,19.77A85.174,85.174,0,1,0,159.733,39.7a9.886,9.886,0,1,1,12.711-15.144,104.975,104.975,0,0,1-67.479,185.38" transform="translate(0 0.015)" fill="url(#linear-gradient)"/>
        </g>
      </g>
    </g>
    <g id="Grupo_3180" data-name="Grupo 3180" transform="translate(1289.163 3329.481)" opacity="0.203">
      <g id="Grupo_3168-2" data-name="Grupo 3168" transform="translate(0 0)">
        <g id="Grupo_3167-2" data-name="Grupo 3167" clip-path="url(#clip-path)">
          <path id="Caminho_653-2" data-name="Caminho 653" d="M24.075,16.073c0,6.89-4.359,10.49-9.126,10.49-5.02,0-8.971-3.754-8.971-9.941,0-5.878,3.6-10.335,9.224-10.335,5.681,0,8.872,4.148,8.872,9.786M11.7,16.425c0,3.445,1.167,5.934,3.4,5.934,2.179,0,3.248-2.236,3.248-5.934,0-3.347-.914-5.934-3.3-5.934-2.278,0-3.347,2.643-3.347,5.934m3.656,23.946L34.269,6.287h4.162L19.463,40.371Zm32.453-10.6c0,6.89-4.359,10.49-9.126,10.49-4.964,0-8.929-3.754-8.971-9.941,0-5.878,3.6-10.349,9.224-10.349,5.681,0,8.873,4.162,8.873,9.8m-12.317.352c-.056,3.445,1.111,5.934,3.347,5.934,2.179,0,3.248-2.236,3.248-5.934,0-3.347-.858-5.934-3.248-5.934-2.334,0-3.347,2.629-3.347,5.934" transform="translate(78.079 82.116)" fill="#fe1eac"/>
        </g>
      </g>
      <g id="Grupo_3170-2" data-name="Grupo 3170" transform="translate(0 0.002)" style="mix-blend-mode: multiply;isolation: isolate">
        <g id="Grupo_3169-2" data-name="Grupo 3169" clip-path="url(#clip-path-2)">
          <rect id="Retângulo_2174-2" data-name="Retângulo 2174" width="209.931" height="209.945" transform="translate(0 -0.001)" fill="#e0e0e0"/>
        </g>
      </g>
      <g id="Grupo_3172-2" data-name="Grupo 3172" transform="translate(0 0)">
        <g id="Grupo_3171-2" data-name="Grupo 3171" clip-path="url(#clip-path-3)">
          <path id="Caminho_655-2" data-name="Caminho 655" d="M104.966,209.932A104.966,104.966,0,1,1,104.966,0a9.885,9.885,0,1,1,0,19.77A85.174,85.174,0,1,0,159.733,39.7a9.886,9.886,0,1,1,12.711-15.144,104.975,104.975,0,0,1-67.479,185.38" transform="translate(0 0.015)" fill="url(#linear-gradient)"/>
        </g>
      </g>
    </g>
    <g id="Grupo_3174" data-name="Grupo 3174" transform="translate(1201 3451.546)">
      <rect id="Retângulo_2176" data-name="Retângulo 2176" width="19.603" height="73.186" rx="2" transform="translate(27.445 0)" fill="#6c00ff"/>
      <rect id="Retângulo_2177" data-name="Retângulo 2177" width="20.91" height="47.048" rx="2" transform="translate(53.583 26.138)" fill="#74069d"/>
      <rect id="Retângulo_2178" data-name="Retângulo 2178" width="20.91" height="22.217" rx="2" transform="translate(0 50.969)" fill="#ba00ff"/>
    </g>
    <g id="Grupo_3101" data-name="Grupo 3101" transform="translate(1308.538 3359.903)" style="isolation: isolate">
      <g id="Grupo_3100" data-name="Grupo 3100" transform="translate(0 0)" style="mix-blend-mode: luminosity;isolation: isolate">
        <g id="Grupo_324" data-name="Grupo 324" transform="translate(0)">
          <g id="Grupo_318" data-name="Grupo 318">
            <g id="Grupo_182" data-name="Grupo 182" transform="translate(134.229 15.443)">
              <g id="Grupo_181" data-name="Grupo 181">
                <path id="Caminho_119" data-name="Caminho 119" d="M2781.851,380.308c.81-20.556-12.377-20.784-.757-42.8,4.659-8.828,4.064-25.788-6.506-27.286-11.21-1.589-16.6,11.889-20.219,18.16-4.414,7.656-13.658,29.559-4.373,46.135,4.783,8.541,2.936,56.445,6.631,56.969S2781.49,389.458,2781.851,380.308Z" transform="translate(-2746.007 -310.097)" fill="#fff"/>
              </g>
            </g>
            <g id="Grupo_184" data-name="Grupo 184" transform="translate(131.511 17.889)">
              <g id="Grupo_183" data-name="Grupo 183">
                <path id="Caminho_120" data-name="Caminho 120" d="M2774.76,386.69c.81-20.557-12.377-20.784-.758-42.8,4.66-8.828,4.063-25.788-6.5-27.286-11.209-1.588-16.605,11.89-20.219,18.161-4.413,7.656-13.657,29.559-4.373,46.135,4.784,8.541,2.936,56.445,6.631,56.969S2774.4,395.84,2774.76,386.69Z" transform="translate(-2738.916 -316.478)" fill="#75e6e3"/>
              </g>
            </g>
            <g id="Grupo_189" data-name="Grupo 189" transform="translate(133.275 14.462)">
              <g id="Grupo_188" data-name="Grupo 188">
                <path id="Caminho_123" data-name="Caminho 123" d="M2755.16,430.9a1.485,1.485,0,0,1-.206-.015c-2.266-.321-2.788-5.244-3.667-24.637-.607-13.388-1.294-28.562-3.681-32.822-8.86-15.818-1.416-37.05,4.379-47.1.461-.8.96-1.736,1.488-2.728,3.7-6.925,9.281-17.392,19.716-15.913a10.5,10.5,0,0,1,8.018,6.03c3.443,6.743,2.3,16.827-.786,22.681-6.808,12.9-4.866,18.024-2.408,24.512,1.691,4.463,3.608,9.522,3.279,17.867-.36,9.135-19.091,46.839-24.611,51.446A2.435,2.435,0,0,1,2755.16,430.9Zm16.089-121.4c-8.035,0-12.634,8.617-16.049,15.016-.538,1.006-1.044,1.956-1.521,2.784-5.588,9.695-12.8,30.117-4.367,45.169,2.613,4.665,3.282,19.42,3.928,33.69.263,5.8.51,11.281.88,15.5.438,5,.929,6.631,1.193,7.163,1.543-1.083,6.353-8.246,13.168-22.129,6.342-12.92,10.7-24.173,10.854-28,.314-7.947-1.528-12.808-3.153-17.1-2.528-6.674-4.712-12.438,2.509-26.118,3.2-6.071,3.552-15.437.773-20.878a8.52,8.52,0,0,0-6.551-4.983A11.863,11.863,0,0,0,2771.249,309.5Z" transform="translate(-2743.516 -307.539)" fill="#191919"/>
              </g>
            </g>
            <g id="Grupo_191" data-name="Grupo 191" transform="translate(121.968 0.979)">
              <g id="Grupo_190" data-name="Grupo 190">
                <path id="Caminho_124" data-name="Caminho 124" d="M2753.507,349.1c-2.468-22.973-15.51-21.147-7.552-47.439,3.19-10.543-.1-29.3-10.757-29.3-11.31,0-14.487,15.829-17.053,23.366-3.136,9.206-8.768,35,3.025,51.959,6.08,8.739,11.876,62.263,15.6,62.263S2754.609,359.322,2753.507,349.1Z" transform="translate(-2714.018 -272.36)" fill="#fff"/>
              </g>
            </g>
            <g id="Grupo_193" data-name="Grupo 193" transform="translate(119.25 3.697)">
              <g id="Grupo_192" data-name="Grupo 192">
                <path id="Caminho_125" data-name="Caminho 125" d="M2746.417,356.187c-2.47-22.973-15.512-21.148-7.554-47.439,3.192-10.543-.1-29.3-10.756-29.3a11.461,11.461,0,0,0-9.107,4.658c-.747,2.33-1.393,4.69-2.125,7.024-.924,2.933-1.958,5.827-2.927,8.744-.937,2.82-2.153,5.531-3.119,8.336-.953,2.769-1.614,5.632-2.728,8.346a3.67,3.67,0,0,1-.369.691c-1.625,11.542-1.372,26.425,6.347,37.525,6.078,8.74,11.876,62.263,15.6,62.263S2747.518,366.413,2746.417,356.187Z" transform="translate(-2706.928 -279.451)" fill="#75e6e3"/>
              </g>
            </g>
            <g id="Grupo_200" data-name="Grupo 200" transform="translate(121)">
              <g id="Grupo_199" data-name="Grupo 199">
                <path id="Caminho_129" data-name="Caminho 129" d="M2735.218,409.351c-1.307,0-2.276-1.325-3.953-8.571-1.107-4.784-2.3-11.269-3.569-18.134-2.733-14.8-5.83-31.584-8.886-35.978-11.2-16.108-7.25-40.789-3.149-52.832.329-.964.673-2.085,1.037-3.271,2.54-8.266,6.377-20.758,16.942-20.758a10.166,10.166,0,0,1,8.266,4.529c4.959,6.683,5.64,18.715,3.426,26.03-4.691,15.5-1.942,20.923,1.538,27.792a49.932,49.932,0,0,1,6.052,19.259c.578,5.362-2.692,20.193-5.947,32.285-3.079,11.449-7.63,25.88-10.317,28.871A1.953,1.953,0,0,1,2735.218,409.351Zm-1.577-137.587c-9.119,0-12.7,11.66-15.072,19.375-.368,1.2-.717,2.336-1.055,3.327-3.983,11.7-7.854,35.617,2.9,51.085,3.3,4.74,6.3,21.008,9.2,36.74,1.184,6.423,2.3,12.489,3.343,17.131,1.195,5.339,1.946,7.152,2.313,7.767.479-.576,1.643-2.437,3.78-8.35,1.763-4.88,3.781-11.4,5.683-18.361,4.194-15.352,6.7-28.554,6.239-32.851a48.259,48.259,0,0,0-5.852-18.584c-3.533-6.973-6.583-12.995-1.665-29.243,2.085-6.891,1.327-18.3-3.125-24.3A8.183,8.183,0,0,0,2733.641,271.764Z" transform="translate(-2711.493 -269.807)" fill="#191919"/>
              </g>
            </g>
            <g id="Grupo_202" data-name="Grupo 202" transform="translate(99.561 20.434)">
              <g id="Grupo_201" data-name="Grupo 201">
                <path id="Caminho_130" data-name="Caminho 130" d="M2699.83,387.2c-5.461-19.832-17.43-15.033-13.571-40.358,1.545-10.157-4.1-26.038-14.089-23.44-10.6,2.754-11.4,17.609-12.779,24.939-1.677,8.952-9.557,37.223,3.813,49.435,6.891,6.293,25.781,48.54,29.274,47.63S2702.26,396.027,2699.83,387.2Z" transform="translate(-2655.558 -323.118)" fill="#fff"/>
              </g>
            </g>
            <g id="Grupo_204" data-name="Grupo 204" transform="translate(97.183 22.88)">
              <g id="Grupo_203" data-name="Grupo 203">
                <path id="Caminho_131" data-name="Caminho 131" d="M2693.558,393.581c-5.46-19.832-17.429-15.033-13.571-40.359,1.547-10.157-4.1-26.038-14.087-23.439-10.6,2.754-11.406,17.609-12.78,24.939-.508,2.716-1.589,7.213-2.472,12.5a2.506,2.506,0,0,1,1.781,2.432c-.151,2.02-1.029,3.791-1.119,5.835-.1,2.262-.354,4.509-.3,6.776a2.281,2.281,0,0,1-1.648,2.351c.375,7.558,2.356,14.773,7.576,19.541,6.892,6.293,25.782,48.54,29.274,47.63S2695.988,402.409,2693.558,393.581Z" transform="translate(-2649.356 -329.5)" fill="#75e6e3"/>
              </g>
            </g>
            <g id="Grupo_206" data-name="Grupo 206" transform="translate(145.636 19.577)">
              <g id="Grupo_205" data-name="Grupo 205">
                <path id="Caminho_132" data-name="Caminho 132" d="M2802.551,382.939c.776-23.811,12.716-24.567,16.3-35.055,2.158-6.315.519-24.088-8.994-26.637-10.09-2.7-19.542,10.1-18.718,21.586.527,7.337-16.1,13.8-10.564,32.411,2.8,9.425-5.3,75.7-4.784,72.3C2775.92,446.68,2801.922,402.191,2802.551,382.939Z" transform="translate(-2775.766 -320.881)" fill="#fff"/>
              </g>
            </g>
            <g id="Grupo_208" data-name="Grupo 208" transform="translate(146.457 20.392)">
              <g id="Grupo_207" data-name="Grupo 207">
                <path id="Caminho_133" data-name="Caminho 133" d="M2807.643,323.374a10.608,10.608,0,0,0-5.143-.093,2.335,2.335,0,0,1-1.641,1.393c-.784.212-1.379,1.083-1.909,1.68-.786.887-1.873,1.634-2.561,2.591a19.568,19.568,0,0,0-2.819,5.861c-1.261,4.254-.755,8.93-2.435,13.069a21.794,21.794,0,0,1-4.282,6.28,36.5,36.5,0,0,0-4.105,6.42c-.442.79-1.007,1.581-1.544,2.389.006,2.149.017,4.188-.126,6.218a31.229,31.229,0,0,1-.754,4.418,2.471,2.471,0,0,1,.73,1.732c.158,4.479,1.159,8.857,1.179,13.352a87.652,87.652,0,0,1-.719,13.238c-.6,4.1-.512,8.24-1.087,12.346-.253,1.824-.515,3.633-.627,5.472a7.236,7.236,0,0,1-.978,3.691,2.619,2.619,0,0,1,.111.3,9.723,9.723,0,0,1,.061,4.5c-.208,1.311-.3,2.613-.4,3.937-.239,3.135-.335,6.291-.684,9.417,7.455-13.9,21.964-42.191,22.431-56.514.777-23.811,12.715-24.567,16.3-35.056C2818.794,343.7,2817.155,325.923,2807.643,323.374Z" transform="translate(-2777.907 -323.009)" fill="#75e6e3"/>
              </g>
            </g>
            <g id="Grupo_210" data-name="Grupo 210" transform="translate(98.578 19.458)">
              <g id="Grupo_209" data-name="Grupo 209">
                <path id="Caminho_134" data-name="Caminho 134" d="M2690.794,444.826c-2.2,0-5.358-5.285-14.68-22.682-5.6-10.444-11.937-22.281-15.153-25.217-12.375-11.3-7.269-35.363-4.815-46.927.282-1.33.526-2.478.7-3.41s.345-2.019.525-3.164c1.247-7.958,3.129-19.984,12.97-22.541a9.129,9.129,0,0,1,8.718,2.286c5.415,4.882,7.633,15.349,6.583,22.247-2.265,14.867,1.029,19,5.2,24.221a39.255,39.255,0,0,1,8.346,15.731c1.267,4.606.256,18.47-1.113,29.909-1.292,10.8-3.545,24.7-5.641,28.325a2.3,2.3,0,0,1-1.294,1.178A1.38,1.38,0,0,1,2690.794,444.826Zm-18.067-122.3a7.49,7.49,0,0,0-1.893.251c-8.6,2.235-10.363,13.5-11.53,20.951-.182,1.16-.353,2.256-.534,3.222s-.425,2.114-.709,3.456c-2.379,11.208-7.328,34.53,4.221,45.076,3.462,3.163,9.611,14.639,15.557,25.738,2.975,5.553,5.784,10.8,8.167,14.845,2.934,4.984,4.188,6.335,4.671,6.7,1.219-1.7,3.443-11.553,5.258-26.073,1.84-14.718,2.39-27.1,1.368-30.8a37.544,37.544,0,0,0-7.986-15.029c-4.294-5.379-8-10.023-5.608-25.737.974-6.4-1.027-16.053-5.958-20.5A7.394,7.394,0,0,0,2672.727,322.527Z" transform="translate(-2652.993 -320.572)" fill="#191919"/>
              </g>
            </g>
            <g id="Grupo_214" data-name="Grupo 214" transform="translate(144.669 18.603)">
              <g id="Grupo_213" data-name="Grupo 213">
                <path id="Caminho_136" data-name="Caminho 136" d="M2774.183,447.078c-.453-.052-1.028-.281-.929-1.3.014-.149.038-.371.069-.659.062-.569.155-1.4.272-2.462,5.6-50.4,5.532-65.182,4.485-68.707-3.693-12.427,2.2-19.775,6.5-25.141,2.249-2.806,4.191-5.229,4.03-7.479a24.208,24.208,0,0,1,8.243-19.594c3.62-2.992,7.777-4.059,11.7-3.008,3,.8,5.455,2.972,7.307,6.447,3.48,6.527,4.037,16.544,2.36,21.451-1.315,3.849-3.673,6.425-6.17,9.153-4.491,4.907-9.582,10.469-10.076,25.618-.538,16.475-19.039,50.514-25.118,61.7-.816,1.5-1.526,2.807-1.677,3.137A.976.976,0,0,1,2774.183,447.078Zm31.339-126.791a11.857,11.857,0,0,0-7.426,2.963,22.483,22.483,0,0,0-7.538,17.945c.216,3.016-1.948,5.716-4.454,8.843-4.254,5.308-9.55,11.914-6.148,23.359,1.574,5.3.157,28.056-4.215,67.657,6.559-12.081,23.771-44.209,24.277-59.715.518-15.873,5.869-21.718,10.588-26.875,2.458-2.684,4.579-5,5.762-8.465,1.366-4,1.177-13.5-2.234-19.9-1.588-2.978-3.636-4.821-6.087-5.478A9.743,9.743,0,0,0,2805.522,320.288Z" transform="translate(-2773.242 -318.341)" fill="#191919"/>
              </g>
            </g>
            <g id="Grupo_216" data-name="Grupo 216" transform="translate(141.566 79.212)">
              <g id="Grupo_215" data-name="Grupo 215">
                <path id="Caminho_137" data-name="Caminho 137" d="M2802.266,477.552a13.267,13.267,0,0,0-8.3-.719,1.483,1.483,0,0,1-.87.891,12.479,12.479,0,0,0-2.416,1.314,1.486,1.486,0,0,1-.352.813,77.07,77.07,0,0,0-8.053,11.98,26.145,26.145,0,0,0-2.821,6.609,33.861,33.861,0,0,0-.865,6.5c-.109,2.513-.1,5.069.018,7.583a22.633,22.633,0,0,1-.434,6.8c-.53,2.069-1.131,4.532-2.415,6.279a18.088,18.088,0,0,0-1.1,1.9,1.481,1.481,0,0,1-.092,1.039c-.483,1.052-1.072,2-1.528,3.072a3.9,3.9,0,0,1-1.6,1.854,5.266,5.266,0,0,1-.835.383c-.077.089-.15.181-.229.268a1.242,1.242,0,0,1-1.587.3c-.145.047-.289.1-.429.151-1.89,2.907-3.366,5.063-3.205,6.182.378,2.642,22.443-16.328,24.012-27.213,2.439-16.918,6.958-17.643,13.421-21.177C2807.937,489.432,2808.83,480.174,2802.266,477.552Z" transform="translate(-2765.147 -476.465)" fill="#75e6e3"/>
              </g>
            </g>
            <g id="Grupo_243" data-name="Grupo 243" transform="translate(0 59.723)">
              <g id="Grupo_218" data-name="Grupo 218" transform="translate(24.956 30.047)">
                <g id="Grupo_217" data-name="Grupo 217">
                  <path id="Caminho_138" data-name="Caminho 138" d="M2469.488,540.876c1.545.49,4.412-1.075,7.238-3.458s2.086-4.943,2.283-7.173,3.6-12.918,1.956-15.98-9.4-11.73-14.673-10.041-6.2,9.84-4.761,12.326,5.839,5.543,5.023,8.216-5.007,4.019-4.7,7.891S2467.942,540.383,2469.488,540.876Z" transform="translate(-2460.919 -504.008)" fill="#fff" fill-rule="evenodd"/>
                </g>
              </g>
              <g id="Grupo_220" data-name="Grupo 220" transform="translate(25.123 29.132)">
                <g id="Grupo_219" data-name="Grupo 219">
                  <path id="Caminho_139" data-name="Caminho 139" d="M2461.354,514.017v-1.565a20.769,20.769,0,0,1,1.5-6.194c.707-1.66,1.717-3.444,3.39-4.239,2.467-1.17,5.168.517,6.782,1.565a34.094,34.094,0,0,1,4.042,3.066c2.51,2.181,5.344,4.721,5.674,8.541a15.818,15.818,0,0,1-1.044,6.065,29.181,29.181,0,0,0-1.564,5.607c-.168,1.814.453,3.328.391,5.086-.1,2.605-1.747,4.01-3.261,5.216-.478.382-3.351,2.764-3.651.914-.125-.762.655-1.179,1.043-1.435,1.464-.97,3.171-2.116,3.716-3.781.486-1.487-.168-3.434-.2-5.086a12.35,12.35,0,0,1,.782-4.109c.366-1.2.719-2.4,1.108-3.782a14.761,14.761,0,0,0,.782-4.174c-.125-3.53-3.062-5.843-5.086-7.628a31.811,31.811,0,0,0-3.585-2.8c-1.047-.7-2.938-1.967-4.629-1.631-1.625.324-2.666,2.66-3.26,4.3a12.8,12.8,0,0,0-.914,6.456c.335,1.676,1.638,2.928,2.608,4.107.887,1.081,2.127,2.529,2.281,4.109.232,2.368-1.309,3.745-2.411,4.89a8.267,8.267,0,0,0-2.022,2.477,5.75,5.75,0,0,0,1.044,4.891c1.267,1.621,3.437,2.2,5.217,3.391a10.042,10.042,0,0,1-1.111-3.456c-.365-4.756,2.756-8.083,3.783-11.346a11.334,11.334,0,0,0-.325-7.5,10.867,10.867,0,0,0-2.153-2.8c-.589-.614-2.337-1.708-2.152-2.674a.833.833,0,0,1,.717-.716c.979-.2,2.417,1.6,3,2.216a14.372,14.372,0,0,1,2.282,3.065,13.671,13.671,0,0,1,.522,8.8c-.867,2.946-3.149,5.456-3.651,8.935-.615,4.246,2.194,6.124,3.457,9.063a8.286,8.286,0,0,1-.133,6.716c-1.71,3.435-4.564,5.1-5.672,8.8a40.089,40.089,0,0,0-1.3,9.586c-.073,1.561-.218,2.579-1.109,2.542-1.01-.039-.931-1.281-.847-2.737a45.9,45.9,0,0,1,1.435-9.912,13.81,13.81,0,0,1,2.608-4.891,23.365,23.365,0,0,0,3.2-4.37c1.275-2.683.009-5.69-1.371-7.433-.479.044-.6.363-1.237.26a10.079,10.079,0,0,1-1.827-.911c-3.051-1.641-6.454-3.573-6.454-8.152,0-2.633,1.237-3.623,2.607-5.021.781-.8,1.948-2.038,1.957-3.26a3.964,3.964,0,0,0-1.175-2.414C2463.631,518.667,2461.686,516.756,2461.354,514.017Z" transform="translate(-2461.354 -501.622)" fill="#191919" fill-rule="evenodd"/>
                </g>
              </g>
              <g id="Grupo_222" data-name="Grupo 222" transform="translate(1.389 30.046)">
                <g id="Grupo_221" data-name="Grupo 221">
                  <path id="Caminho_140" data-name="Caminho 140" d="M2413.652,537.669c-1.5-.028-10.583.208-12-3.458s4.557-10.192,2.48-12.977-4.678-4.151-4.7-8.151.562-8.1,3-8.869,8.21.668,9.326,3.586-.087,7.424,2.151,10.175,5.574,3.977,5.543,7.955-2.11,8.566-2.934,9.456S2415.154,537.7,2413.652,537.669Z" transform="translate(-2399.435 -504.008)" fill="#fff" fill-rule="evenodd"/>
                </g>
              </g>
              <g id="Grupo_224" data-name="Grupo 224" transform="translate(1.237 32.492)">
                <g id="Grupo_223" data-name="Grupo 223">
                  <path id="Caminho_141" data-name="Caminho 141" d="M2399.539,511.909c-.9,3.178-.74,7.346,1.765,9.819a8.725,8.725,0,0,1,2.739,4.661,13.422,13.422,0,0,1-.585,5.492,56.959,56.959,0,0,1-1.681,6.26c-.074.206-.161.412-.243.619a14.567,14.567,0,0,1,1.972.789c3.329,1.588,6.923,2.389,10.465,1.053a2.087,2.087,0,0,1,1.415,0,20.417,20.417,0,0,0,2.2-8.289c.029-3.978-3.3-5.2-5.544-7.955s-1.035-7.255-2.151-10.175-6.886-4.357-9.325-3.586a2.668,2.668,0,0,0-.917.511A2.7,2.7,0,0,1,2399.539,511.909Z" transform="translate(-2399.039 -510.389)" fill="#75e6e3" fill-rule="evenodd"/>
                </g>
              </g>
              <g id="Grupo_226" data-name="Grupo 226" transform="translate(0 29.088)">
                <g id="Grupo_225" data-name="Grupo 225">
                  <path id="Caminho_142" data-name="Caminho 142" d="M2409.535,534.7c-1.485-1.27-3.062-2.74-3.261-5.477A21.21,21.21,0,0,1,2406.8,524c.282-1.552.923-3.6.652-5.086a5.075,5.075,0,0,0-1.826-2.479,8.831,8.831,0,0,1-1.956-2.346c-.466-1.04-1.28-5.716.588-5.607,1.376.078.659,3.419,1.108,4.628.336.905,1.392,1.66,2.151,2.479a6.222,6.222,0,0,1,1.892,3.26c.231,1.66-.331,3.515-.652,5.216-.418,2.2-.968,4.867-.132,6.717,1.512,3.338,6.636,3.521,7.043,8.151.252,2.874-.924,5.032-1.7,7.237a35.313,35.313,0,0,0-1.956,6.977,102.747,102.747,0,0,0-.456,12.391c.013,1.284.351,3.494-.914,3.52-1.141.022-1.043-1.511-1.043-3.13a109.655,109.655,0,0,1,.391-12.325,31.864,31.864,0,0,1,1.7-6.847c.764-2.16,1.817-4.115,2.02-6.453a4.059,4.059,0,0,0-1.631-3.914,5.78,5.78,0,0,1-2.021.26c-3.172.033-7.422-.3-9.521-1.565a3.763,3.763,0,0,1-1.955-3.193c-.124-3.247,2.411-6.059,2.674-9.521.308-4.076-3.644-5.778-4.892-8.672-1.456-3.382.245-8.487,1.958-10.5a4.478,4.478,0,0,1,3.715-1.7,9.98,9.98,0,0,1,5.086,1.762,10.843,10.843,0,0,1,3.456,3.388c1.373,2.47.5,6.267,1.7,8.8,1.18,2.507,3.982,4.15,5.348,6.651,1.929,3.534-.4,7.967-2.022,10.693-.384.643-.919,1.862-1.826,1.761-1.466-.165-.511-1.726.065-2.672.327-.541.862-1.467,1.173-2.088.729-1.451,1.731-3.614,1.37-5.477a8.038,8.038,0,0,0-2.283-3.586c-1.915-2.025-3.838-3.817-4.369-7.3-.308-2.039-.033-4.344-.913-5.87a8.692,8.692,0,0,0-3.129-2.87c-1.129-.7-3.021-1.639-4.566-1.172-2.053.618-3.325,4.651-3.325,7.368,0,3.52,3.037,4.925,4.5,7.5a6.807,6.807,0,0,1,.915,3.976,18.294,18.294,0,0,1-1.434,5.022c-.463,1.216-1.667,3.4-1.108,5.021.4,1.163,2.292,1.635,3.715,1.891A42.534,42.534,0,0,0,2409.535,534.7Z" transform="translate(-2395.812 -501.507)" fill="#191919" fill-rule="evenodd"/>
                </g>
              </g>
              <g id="Grupo_228" data-name="Grupo 228" transform="translate(11.314 0.736)">
                <g id="Grupo_227" data-name="Grupo 227">
                  <path id="Caminho_143" data-name="Caminho 143" d="M2439.3,427.541c3.962.119,9,3.293,8.935,6.391s-2.777,8.574-.782,12.521,7.954,9.257,6.391,15.195-6.885,6.8-6.326,10.891,3.765,6.985,2.935,9.586-3.9,9.452-8.413,9.391-9.513-3.33-12.651-6.651-6.3-10.07-1.868-14.9c5.244-5.714,9.022-10.482,5.2-15.234s-10.61-13.281-5.217-18.52S2435.337,427.42,2439.3,427.541Z" transform="translate(-2425.33 -427.538)" fill="#fff" fill-rule="evenodd"/>
                </g>
              </g>
              <g id="Grupo_230" data-name="Grupo 230" transform="translate(11.112 1.554)">
                <g id="Grupo_229" data-name="Grupo 229">
                  <path id="Caminho_144" data-name="Caminho 144" d="M2444.136,448.585c-1.994-3.948.721-9.424.782-12.521s-4.973-6.271-8.934-6.391a3.347,3.347,0,0,1-2.313,1.282c.73-.1.2-.063-.042.148-.195.164-.383.337-.561.519-.314.328-.58.7-.889,1.027-.943,1.014-2.032,1.876-2.965,2.905a10.6,10.6,0,0,0-2.992,6.22,16.484,16.484,0,0,0-.4,4.081,12.368,12.368,0,0,0,.724,3.107,2.557,2.557,0,0,1,1,.959c.672,1.1,1.646,1.973,2.281,3.111.592,1.062,1.135,2.167,1.651,3.268,1.068,2.278,1.936,4.819.986,7.3-.929,2.422-3.01,3.737-4.616,5.64a7.221,7.221,0,0,0-1.515,2.551,16.485,16.485,0,0,1-1.1,3.193c-.028.053-.06.1-.088.147a2.075,2.075,0,0,1-.107.916,9.892,9.892,0,0,0-.078,3.991,8.03,8.03,0,0,0,.818,2.765c1.058,2.166,2.95,3.689,4.762,5.231.965.821,2,1.531,3,2.315a7.91,7.91,0,0,0,2.621,1.6,24.921,24.921,0,0,0,5.562.686c2.858-1.993,4.776-6.407,5.406-8.379.829-2.6-2.376-5.492-2.935-9.586s4.76-4.955,6.325-10.89S2446.131,452.53,2444.136,448.585Z" transform="translate(-2424.803 -429.673)" fill="#75e6e3" fill-rule="evenodd"/>
                </g>
              </g>
              <g id="Grupo_232" data-name="Grupo 232" transform="translate(10.363 0)">
                <g id="Grupo_231" data-name="Grupo 231">
                  <path id="Caminho_145" data-name="Caminho 145" d="M2440.682,491.269c.711,2.915,2.051,5.805,1.827,9.131a20.716,20.716,0,0,1-2.74,8.344,24.493,24.493,0,0,0-2.608,8.477c-.2,1.6-.362,3.523-.456,5.086-.077,1.246.344,4.558-1.175,4.5-1.164-.046-.92-1.734-.846-3.326a49.965,49.965,0,0,1,1.5-11.214,40.754,40.754,0,0,1,2.608-5.935,13.623,13.623,0,0,0,1.827-6.651,28.792,28.792,0,0,0-1.5-7.042c-1.3-4.524-2.729-8.4-4.043-12.977-.618-2.147-1.529-4.673-1.369-7.107.232-3.535,2.614-6.524,4.368-8.868,1.379-1.841,3-4.09,3-7.239a5.665,5.665,0,0,0-.456-2.216c-.924-2.19-2.6-3.97-3.847-6a15.871,15.871,0,0,1-1.5-3.455,10.388,10.388,0,0,1-.652-4.694,8.712,8.712,0,0,1,1.108-2.87c.3-.542,1.08-2.138,2.153-1.565.919.49.084,1.7-.261,2.281a6.506,6.506,0,0,0-.652,5.87,18,18,0,0,0,1.043,2.736c1.478,2.879,4.015,4.885,4.76,7.956a12.123,12.123,0,0,1-1.3,7.825c-1.717,3.146-5.465,6.053-5.8,10.172a13.977,13.977,0,0,0,.718,4.565c1.039,4.125,2.5,8.291,3.652,12.194a21.836,21.836,0,0,0,4.564-3.2c1.26-1.085,3.1-2.772,3.194-4.63.093-1.839-.972-3.2-1.694-4.5-.873-1.565-2.133-3.258-1.826-5.674.456-3.588,4.46-4.5,5.933-7.107a12.967,12.967,0,0,0,.588-9.13,17.546,17.546,0,0,0-2.87-4.3,13.561,13.561,0,0,1-3-10.956c.154-1.051.4-2.023.586-3a10.265,10.265,0,0,0,.326-3.39,6.681,6.681,0,0,0-1.63-3.2,6.448,6.448,0,0,0-3.976-2.609,10.232,10.232,0,0,0-6.064,1.5,16.716,16.716,0,0,0-7.369,7.695,11.646,11.646,0,0,0-1.238,6.454,9.092,9.092,0,0,0,1.76,3.455c.731,1.062,1.478,2.125,2.151,3.065,1.423,1.986,3.187,4.389,3.39,7.044.272,3.506-1.269,5.844-2.737,8.019-1.489,2.2-3.449,4.131-4.5,6.26-1.134,2.3-1.118,6.8.067,8.933.939,1.688,3.437,3.675,5.15,5.021.728.573,1.616,1.235,2.675,2.021.737.549,2.49,1.309,2.085,2.414-.551,1.509-2.736-.475-3.325-.914-1.117-.831-2.094-1.62-3-2.347-1.9-1.528-4.227-3.262-5.348-5.346-1.336-2.487-1.433-7.142-.259-10.042.9-2.234,2.731-4.137,4.172-6.13,1.388-1.919,3.146-4.406,3.13-7.172-.016-2.846-1.844-4.994-3.39-7.107-1.611-2.2-3.761-4.476-4.043-7.37a13.274,13.274,0,0,1,1.37-6.717c2.343-5.1,7.256-9.883,13.5-10.627a7.91,7.91,0,0,1,6.131,1.955c1.507,1.348,3.223,3.6,3.325,6.065.139,3.421-1.466,5.928-1.174,9.716.363,4.711,4.5,7.046,5.934,10.954,1.359,3.7.659,8.739-1.175,11.281a15.79,15.79,0,0,1-2.869,2.738c-.936.77-2.278,1.971-2.412,3.391s1.035,3.08,1.7,4.239c.939,1.651,2.352,3.942,1.694,6.521-.546,2.149-2.266,3.71-3.78,5.021A37.485,37.485,0,0,1,2440.682,491.269Z" transform="translate(-2422.848 -425.619)" fill="#191919" fill-rule="evenodd"/>
                </g>
              </g>
              <g id="Grupo_237" data-name="Grupo 237" transform="translate(7.465 82.179)">
                <g id="Grupo_234" data-name="Grupo 234" transform="translate(0.978 0.978)">
                  <g id="Grupo_233" data-name="Grupo 233">
                    <path id="Caminho_146" data-name="Caminho 146" d="M2422.075,642.569h27.458c2.34,0,4.237,1.459,4.237,3.261l-4.107,17.8a3.261,3.261,0,0,1-3.26,3.26h-21.131a3.261,3.261,0,0,1-3.26-3.26l-4.174-17.8C2417.838,644.028,2419.734,642.569,2422.075,642.569Z" transform="translate(-2417.838 -642.569)" fill="#fff"/>
                  </g>
                </g>
                <g id="Grupo_236" data-name="Grupo 236">
                  <g id="Grupo_235" data-name="Grupo 235">
                    <path id="Caminho_147" data-name="Caminho 147" d="M2444.83,666.3H2423.7a4.242,4.242,0,0,1-4.236-4.118l-4.151-17.7a1.007,1.007,0,0,1-.026-.223c0-2.337,2.34-4.239,5.216-4.239h27.458c2.876,0,5.216,1.9,5.216,4.239a.953.953,0,0,1-.026.22l-4.085,17.7A4.243,4.243,0,0,1,2444.83,666.3Zm-27.584-22.142,4.144,17.68a.935.935,0,0,1,.027.224,2.285,2.285,0,0,0,2.282,2.281h21.131a2.284,2.284,0,0,0,2.281-2.281,1.015,1.015,0,0,1,.026-.22l4.08-17.682c-.076-1.194-1.537-2.184-3.256-2.184H2420.5C2418.783,641.974,2417.323,642.963,2417.246,644.156Z" transform="translate(-2415.286 -640.017)" fill="#191919"/>
                  </g>
                </g>
              </g>
              <g id="Grupo_242" data-name="Grupo 242" transform="translate(4.073 77.125)">
                <g id="Grupo_239" data-name="Grupo 239" transform="translate(0.979 0.979)">
                  <g id="Grupo_238" data-name="Grupo 238">
                    <path id="Caminho_148" data-name="Caminho 148" d="M2411.306,629.386h38.865a1.273,1.273,0,0,1,1.24,1.3l1.076,7.5a1.305,1.305,0,0,1-1.3,1.305h-40.888a1.3,1.3,0,0,1-1.3-1.305l1.076-7.5A1.273,1.273,0,0,1,2411.306,629.386Z" transform="translate(-2408.99 -629.386)" fill="#fff"/>
                  </g>
                </g>
                <g id="Grupo_241" data-name="Grupo 241">
                  <g id="Grupo_240" data-name="Grupo 240">
                    <path id="Caminho_149" data-name="Caminho 149" d="M2449.609,638.9h-40.888a2.286,2.286,0,0,1-2.283-2.284c.012-.139,1.078-7.579,1.078-7.579a2.25,2.25,0,0,1,2.217-2.2H2448.6a2.25,2.25,0,0,1,2.216,2.2l1.068,7.44A2.306,2.306,0,0,1,2449.609,638.9ZM2408.4,636.66a.328.328,0,0,0,.323.28h40.888a.327.327,0,0,0,.323-.28l-1.063-7.407c-.009-.315-.129-.463-.27-.463h-38.865a.3.3,0,0,0-.263.324C2409.46,629.253,2408.4,636.66,2408.4,636.66Z" transform="translate(-2406.437 -626.833)" fill="#191919"/>
                  </g>
                </g>
              </g>
            </g>
            <g id="Grupo_248" data-name="Grupo 248" transform="translate(113.56 30.159)">
              <g id="Grupo_245" data-name="Grupo 245" transform="translate(0.986 0.978)">
                <g id="Grupo_244" data-name="Grupo 244">
                  <path id="Caminho_150" data-name="Caminho 150" d="M2722.761,466.39s-1.989-31.654-6.551-56.769c-3.457-19.03-17.385-22.137-20.018-34.35-3.411-15.816-.089-24.229-.089-24.229Z" transform="translate(-2694.653 -351.041)" fill="#fff"/>
                </g>
              </g>
              <g id="Grupo_247" data-name="Grupo 247">
                <g id="Grupo_246" data-name="Grupo 246">
                  <path id="Caminho_151" data-name="Caminho 151" d="M2721.174,465.794a.979.979,0,0,1-.975-.917c-.02-.316-2.039-31.886-6.537-56.656-1.888-10.4-7.058-15.99-11.618-20.925-3.694-4-7.183-7.772-8.394-13.394-3.434-15.923-.183-24.44-.043-24.795a.978.978,0,0,1,1.82.718c-.032.08-3.161,8.384.135,23.664,1.1,5.1,4.26,8.519,7.919,12.479,4.741,5.131,10.115,10.946,12.106,21.9,4.519,24.884,6.544,56.566,6.564,56.883a.978.978,0,0,1-.915,1.037Z" transform="translate(-2692.08 -348.489)" fill="#191919"/>
                </g>
              </g>
            </g>
            <g id="Grupo_249" data-name="Grupo 249" transform="translate(22.721 19.055)">
              <path id="Caminho_152" data-name="Caminho 152" d="M2459.974,448.051c1.392,1.435,22.37,7.956,22.37,7.956s-8.211-1.478-10.044-1.7-8.535,1.583-8.739,7.956,7.026,8.5,9.13,9,23.87,2.023,23.87,2.023l4.043-2.8a30.473,30.473,0,0,0,6.13,2.737c2.279.513,9.2-2.932,9.2-2.932l1.3.847a22.21,22.21,0,0,0,2.087,4.174c1.087,1.506,4.37,3,6.717,3.261s3.109-1.631,5.413-6.065,4.517-7.706,4.173-8.284,7.028,4.125,14.868,5.219,17.533-2.594,21.652-8.674,1.611-11.383.26-16.107-6.585-12.719-6.585-12.719a101.307,101.307,0,0,0,9.456-3.846c4.249-2.054,4.484-6.405,2.152-15.13s-8.8-22.107-8.8-22.107,15.044-3.291,15.587-15c.265-5.745-7.043-7.826-7.043-7.826s2.124-6.326.912-9.849-8.644-5.244-15.13-9-8.294-20.373-11.151-25.629-6.283-4.838-11.217-1.825-5.218,9.912-5.218,9.912-6.356,1.126-9.39,1.956a35.666,35.666,0,0,0-11.088,5.349c-2.559,1.988-1.2,3.419-.546,3.916.119-.059.221.008.286.191a2.469,2.469,0,0,1-.286-.191c-.7.336-2.007,4.932-.171,15.32,1.457,8.241,1.881,11.284,2.413,11.61s2.218-2.414,2.218-2.414,4.212,5.125,5.346,5.023.087-3.345-.391-5.48-1.044-3.978-1.044-3.978a21.671,21.671,0,0,0,4.631,1.369,19.435,19.435,0,0,0,5.153-.26s1.7,5.14,2.478,7.565-4.055,2.214-6.392,2.284a23.311,23.311,0,0,0-8.674,2.151c-2.961,1.4-5.5,4.737-7.825,8.151s-21.032,40.856-21.586,41.151-22.889-1.63-22.889-1.63-6.3.517-10.892,8.609S2458.583,446.617,2459.974,448.051ZM2547.3,408.01l7.825-9.784,6.849,18.523-5.74,2.021Zm-32.738,3.2c.672-.157,5.543-9.717,5.543-9.717l2.935.391,1.694,6.261-4.825,8.935S2513.886,411.362,2514.56,411.205Z" transform="translate(-2455.088 -319.52)" fill="#fff" fill-rule="evenodd"/>
            </g>
            <g id="Grupo_254" data-name="Grupo 254" transform="translate(22.345 18.311)">
              <g id="Grupo_250" data-name="Grupo 250" transform="translate(58.846 0.744)">
                <path id="Caminho_153" data-name="Caminho 153" d="M2617.759,362.873l.461,9.53-3.394-2.164-2.374-2.177-1.3,1.421-1.667-2.593-1.236-10.568-.617-11.86.832-2.165-.832-1.823s3.521-2.625,3.645-2.809c.052-.078,5.486-2.9,5.486-2.9l8.91-2.476,3.762-.645,2.6-8.191,6.242-3.932,4.817,1.524,4.138,5.857,3.4,11.2,3.756,9.3,7.047,4.454,9.381,4.895,1.259,4.478s-.089,3.825-.089,4.05-1.17,2.777-1.17,2.777l5.156,2.18,1.923,4.421v5.44l-3.207,5.138-9.3,6.1-2.325-.938-2.3-6.771-5.717-8.593-5.707-2.927h-5.785l-4.944-.149-2.55-3.9.525-2.025-3.075,2.774-1.951.977-1.575-16.879-13.688-6.678-4.016-1.875-1.05,3.712.151,1.539S2611.241,359.487,2617.759,362.873Z" transform="translate(-2607.633 -319.52)" fill="#fff" fill-rule="evenodd"/>
              </g>
              <g id="Grupo_251" data-name="Grupo 251" transform="translate(56.349 53.842)">
                <path id="Caminho_154" data-name="Caminho 154" d="M2601.119,472.623l6.084,3.965v3.535l1.309,4.692,4.947,2.914,2.162,5.612,21.931-.187,7.66-9.893,6.412-4.55,7.894-2.843-3.51-8.936-3.355-4.893-3.878-3.138-3.99-.851-5.584,5-4.415,3.67-5.266,2.365-8.085.843-4.893-1.666-1.967-1.861-.054-6.064-6.6,2.925-3.936,4.219Z" transform="translate(-2601.119 -458.049)" fill="#75e6e3" fill-rule="evenodd"/>
              </g>
              <g id="Grupo_252" data-name="Grupo 252">
                <path id="Caminho_155" data-name="Caminho 155" d="M2454.271,438.369c.69,4.787,3.167,8.592,6.783,10.37a102.794,102.794,0,0,0,12.518,4.63,9.667,9.667,0,0,0-7.368,1.758c-1.732,1.14-3.884,2.874-4.173,5.283a7.723,7.723,0,0,0,1.565,5.346,11.6,11.6,0,0,0,3.522,3.392c3.011,1.793,7.009,2.327,11.343,2.477,5.611.2,11.316.26,17.02.26,2.373,0,4.624-.846,6.824-1.363-.553-.317-1.048-.736-1.629-1l.373.156a2.5,2.5,0,0,1-.97-.619,26.781,26.781,0,0,1-3.683.875c-1.657.176-3.5,0-5.282,0-5.089,0-10.647-.119-15.453-.391-.43-5.559,1.281-9.542,3-13.172,2.51.523,5.216,1.276,7.759,1.956a10.8,10.8,0,0,0,2.543.653,9.842,9.842,0,0,0,2.413-.979c14.42-6.605,28.99-13.652,43.427-19.953a58.54,58.54,0,0,1,9.586-3.717,10.288,10.288,0,0,1,5.8-.13,49.046,49.046,0,0,1,4.565,2.086c1.383.651,2.86,1.409,4.434,2.219,1.2.619,3.5,2.308,4.435,1.956.3-.115.52-.213.586-.654.163-1.074-1.023-1.3-1.76-1.7-2.145-1.152-4.677-2.557-6.717-3.455,2.613-1.038,5.506-1.8,8.151-2.8a45.677,45.677,0,0,1,7.5,13.693c.948,2.692,1.881,5.98,1.434,8.932-1.33,8.768-9.89,11.633-19.562,12.193a34.29,34.29,0,0,1-9.715-.716,57.319,57.319,0,0,1-6.131-1.826,2.319,2.319,0,0,1-1.5-1.109c2.993-.723,6.252-1.5,9.455-2.216.932-.209,2.529-.23,2.608-1.24.128-1.65-1.917-.866-3.129-.586-12.043,2.772-25.1,5.626-36.777,8.281.356.449,1,.565,1.5.847.344.2.463.46.782.653.647.02,1.122-.5,1.63-.393.565.117.926,1.683,2.348,1.045,1.326,1.473,2.074,3.184,3.326,4.63a17.148,17.148,0,0,0,3.261,2.672c1.424.972,3.1,2.4,5.281,2.02,2.856-.495,4.4-3.264,5.674-5.672,1.379-2.6,2.586-5.05,3.78-7.5a63.344,63.344,0,0,0,8.607,2.542c6.317,1.281,14.336.333,19.628-1.37,5.431-1.746,9.56-5.486,10.759-11.477.606-3.03-.161-6.589-1.11-9.454a53.567,53.567,0,0,0-7.564-14.607c5.645-2.331,12.844-3.06,13.63-10.107.26-2.342-.5-4.448-1.175-6.586-2.484-7.882-5.409-15.926-8.15-23.409a23.087,23.087,0,0,0,11.151-7.3c2.351-2.976,4.542-9.651,1.369-13.889-1.241-1.658-3.232-2.491-5.346-3.391a12.737,12.737,0,0,0,.782-8.87c-.886-3.139-2.828-3.473-5.737-4.694-1.11-.466-2.194-1.224-3.392-1.825-3.27-1.646-7.15-3.758-9.193-6.391-1.487-1.917-2.229-4.687-3-7.435-.752-2.681-1.35-5.561-2.151-8.214a28.609,28.609,0,0,0-3.456-6.979c-1.3-2.049-3.1-4.265-5.869-4.5a9.078,9.078,0,0,0-5.216,1.237,11.327,11.327,0,0,0-3.522,2.869c-1.565,2.071-1.911,5.008-2.347,8.087a32.927,32.927,0,0,0-3.782.585c-1.188.281-2.3.829-3.326,1.044-.9.189-1.772.228-2.608.456-3.839,1.05-7.621,2.416-10.5,4.7-.86.681-2.607,2.11-2.348,3.716.12.744.794,1.02,1.306,1.5-1.927,3.229-1.085,9.38-.718,13.953.129,1.633.232,3.246.389,4.761a29.889,29.889,0,0,0,.588,4.5,10.232,10.232,0,0,0,1.3,2.607c.468.738,1.16,1.8,2.021,1.828.833.026,1.029-.545,1.435-1.044,1.168,1.09,2.737,3.182,4.5,3.782,2.838.964,2.091-2.646,1.7-4.5a32.534,32.534,0,0,1-.718-4.107c2.127.71,5.438,1.129,7.695.261a20.623,20.623,0,0,1,1.305,3.261c.289.933.955,2.8.455,3.846-.426.9-2.165.951-3.521,1.045-1.6.11-3,.215-4.107.391a21.852,21.852,0,0,0-6.653,2.349c-4.047,2.128-6.266,5.436-8.541,9.519-2.125,3.813-4.311,7.515-6.456,11.607-1.716,3.271-3.71,6.9-5.413,10.432-.4.843-.527,1.718.457,1.826,1,.113,1.3-1.1,1.7-1.89,1.067-2.124,2.66-5.049,3.651-6.912,2.686-5.048,4.8-9.1,7.5-13.758,2.622-4.53,5.3-8.711,10.889-10.3a7,7,0,0,0,1.435,6.455c1.715,1.643,5.562,2.646,8.8,2.672a25.646,25.646,0,0,0,9.455-2.022,17.626,17.626,0,0,0,6.456-5.02,35.73,35.73,0,0,1,4.761-3.847c.5-.377,1.228-1.1,1.63-1.174.826-.154,2.392.634,3.195,1.109a15.811,15.811,0,0,1,5.869,7.042c1.8,4.12,3.255,8.325,4.759,12.389,2.366,6.4,4.471,12.583,6.651,19.171a51.5,51.5,0,0,1,2.086,6.456,6.775,6.775,0,0,1-2.738,6.977c-2.013,1.387-4.621,2.128-6.911,2.933-4.8,1.689-9.8,3.289-14.673,5.023a13.906,13.906,0,0,0-5.739-1.565,20.3,20.3,0,0,1-2.151.261c-.93-.1-1.529-1.083-2.283-1.175.165-.417.825-.5.718-1.3-.233-1.761-2.617.082-3.391.328-2.1.977-3.434,3.3-6.52,2.868a27.964,27.964,0,0,1,3.455-3.391c.538-.515,1.117-1.047,1.828-1.7.361-.33,1.548-1.155,1.5-1.956a1.047,1.047,0,0,0-.716-.849c-1-.189-1.888,1.138-2.348,1.566-2.008,1.867-4.15,3.853-5.934,5.609a11.354,11.354,0,0,1-1.564-.719,25.2,25.2,0,0,1,4.891-6c.43-.371,1.7-1.094,1.565-2.021a1,1,0,0,0-.589-.719c-.968-.254-1.969.979-2.412,1.37a34.439,34.439,0,0,0-5.085,6.194c-1.4-.811-.111-2.409.652-3.391a29.639,29.639,0,0,1,3.781-3.848c.6-.549,1.7-1.411,1.694-2.086a1.517,1.517,0,0,0-.976-1.175,7,7,0,0,0-2.219-.651c-.76.013-1.588.812-2.216,1.174a8.893,8.893,0,0,1-2.282,1.042c-.177-.523.484-.875.848-1.237.386-.387.788-.8,1.173-1.11.731-.594,1.865-1.624,3-1.629,1.063-.007,2.4,1.107,3.325,1.76a60.357,60.357,0,0,1,5.607,4.5c.77.677,2,2.151,2.8,2.217.84.067,2.2-.912,3-1.3,5.8-2.848,11.339-5.523,17.214-8.477.649-.325,2.4-.892,2.414-1.826.022-1.6-1.813-.695-2.675-.261a15.7,15.7,0,0,1-1.826.912c-2.361-6.688-5.017-14.223-7.5-21.256-.28-.793-.6-2.6-1.37-2.74-1.87-.349-.9,2.1-.587,3s.6,1.6.847,2.282c-2.317,3.16-4.615,6.341-7.042,9.391-6.509-.111-14.052-.05-21.062-.066a12.051,12.051,0,0,1-.782-2.479,7.437,7.437,0,0,0-.847-2.412c-.456-.525-2.083-1.038-2.738-1.435a9.068,9.068,0,0,1-2.283-1.891c-1.186-1.452-1.55-4.721-.716-6.847a10.4,10.4,0,0,1,1.369-2.151c.413-.516,1.444-1.176,1.5-2.023.047-.731-1.557-3.356-2.413-3.39a.941.941,0,0,0-.977.588c-.323,1.2,1.021,1.772,1.239,2.542-1.109,1.381-2.644,3.149-2.934,5.674-.294,2.549.027,5.224,1.434,6.912.6.714,1.3,1.093,1.955,1.76-3.135,4.8-6.692,9.844-10.041,14.868-.441.662-2.212,2.913-.456,3.13.928.113,1.425-1.084,1.891-1.761,3.432-5.005,6.913-10.258,10.3-15.26.438.237.913.436,1.369.653.49,1.392.737,3.109,1.369,4.63a3.135,3.135,0,0,0,.326.52c0,.187-.575.773-.718.978a71.345,71.345,0,0,0-7.367,14.215c-.393.962-.756,2.382.586,2.281.773-.056,1.117-1.187,1.435-1.955,2.294-5.559,4.825-11.019,8.216-15.192h17.541a12.3,12.3,0,0,1,2.477,0c.371.1.857.87,1.239,1.3a109.488,109.488,0,0,1,7.826,9.519c-3.554,1.9-7.325,3.586-10.89,5.479a94.3,94.3,0,0,0-8.413-6.782,7.576,7.576,0,0,0-3.455-1.565c-1.9-.082-3.317,1.175-4.5,2.151a19.527,19.527,0,0,0-1.694,1.63c-.477.5-1.239,1.179-1.239,2.021a2.367,2.367,0,0,0,2.476,2.086c1.755-.1,3.181-1.938,4.565-2.086.138.267-.386.593-.652.849-.871.84-1.732,1.672-2.607,2.672-1.169,1.337-3.379,3.512-2.283,5.739,1.072,2.175,4.072,3.482,6.847,4.173,3.4.846,5.668-1.136,7.824-2.608a9.89,9.89,0,0,1,1.566.782c-10.858,4.248-20.952,9.26-31.365,13.953-10.306-4.711-21.257-9.712-31.886-14.474-.705-.317-2.839-1.648-2.934.065-.066,1.176,2.813,1.966,3.65,2.347,9.534,4.341,19.307,8.789,28.823,13.106-6.148,2.915-12.389,5.739-18.585,8.607-7.491-2.182-15.269-4.4-22.56-7.042-2.5-.907-5.481-1.806-7.3-3.26a13.256,13.256,0,0,1-2.935-15.519,11.924,11.924,0,0,1,5.218-5.411,20.986,20.986,0,0,1,3.911-1.37c1.2-.308,3.737-.295,3.717-1.565-.019-1.253-2-.808-3.065-.589-3.564.742-6.624,2.017-8.736,4.175A14.585,14.585,0,0,0,2454.271,438.369Zm102.439-21c-2.6-3.946-5.9-7.183-8.8-10.822,2.073-2.688,4.051-5.468,6.129-8.151q3.023,8.681,6.064,17.344C2558.92,416.236,2557.892,416.881,2556.71,417.373Zm-41.993-74.529a10.273,10.273,0,0,1,2.151,1.107,6.273,6.273,0,0,0-.782,1.369,9.52,9.52,0,0,0-.848,3.261c.275,1.518,2.339.241,3.325.261a5.227,5.227,0,0,1,3.26,1.5,10.527,10.527,0,0,1,1.5,5.346c-.111.984-1.16,1.706-1.108,2.609a3.848,3.848,0,0,0,2.283,2.151.907.907,0,0,0,.913-.912c.036-.89-.792-1.016-.979-1.565a4.938,4.938,0,0,0,.847-2.479c.039-2.138-.961-5.307-2.085-6.521a6.713,6.713,0,0,0-5.608-1.956,7.494,7.494,0,0,1,.977-2.216c5.143,2.552,10.477,4.912,15.585,7.5.428,4.255,1.809,9.786,1.63,14.933a8.736,8.736,0,0,0-.067,2.479c.571,1.43,2.566-.217,3.261-.719.345-.248.722-.528,1.044-.782s.537-.729.912-.653c.591,1.57.892,3.123,2.348,3.784,2.252,1.02,6.029.258,8.8.651a62.7,62.7,0,0,0-5.216,4.5,15.9,15.9,0,0,1-5.542,4.172,25.227,25.227,0,0,1-7.957,1.761c-2.781.11-6.275-.686-7.826-1.956-1.531-1.257-1.79-4.96-.128-6.13,2.725-.6,6.2-.013,8.215-1.238,3.24-1.967.387-7.576-.521-10.042.815-.521,1.695-.566,1.695-1.5,0-1.893-2.473-.3-3.326.065a9.189,9.189,0,0,1-2.868.783,8.916,8.916,0,0,1-7.63-3.066,10.409,10.409,0,0,1-2.347-5.672c-.156-.947-.44-1.632-1.108-1.629-1.59.006-.679,2.863-.456,3.78a11.2,11.2,0,0,0,4.5,6.716c.07,2.8.844,4.893,1.173,7.435a14.65,14.65,0,0,1-2.674-2.219c-.657-.736-1.317-2.694-2.477-2.541-.833.108-.741,1.009-1.108,1.694-1.311-1.569-1.5-3.829-1.761-6.586-.137-1.458-.276-2.961-.391-4.434C2513.956,351.133,2513.147,346.251,2514.718,342.843Zm30.647,15.323c.2-.677,1.473-2.008,1.631-2.609a27.26,27.26,0,0,1,1.825,6.976,15.486,15.486,0,0,1-1.108,7.37c-1.362-.193-2.588.139-3.521-.26-1.158-.5-1.291-2.742-1.7-3.914a13.936,13.936,0,0,0,2.8-6.326A9.346,9.346,0,0,1,2545.365,358.167Zm-3.586-23.54a13.657,13.657,0,0,1,3.977,5.086c1.713,4.149,2.3,11.212-.521,14.8a38.5,38.5,0,0,0-.588-4.826c-.193-.966-.482-3.742-1.63-3.783-1.606-.054-.729,2.032-.521,3a49.061,49.061,0,0,1,.978,7.63,11.7,11.7,0,0,1-5.021,10.368c-.184.141-.412.434-.717.391a87.924,87.924,0,0,0-1.3-12.844,13.673,13.673,0,0,0-.521-3.326c-.3-.567-1.854-1.125-2.675-1.5-4.916-2.264-9.472-4.463-14.083-6.781a28.327,28.327,0,0,1-5.348-3.065,12.266,12.266,0,0,1,5.673-4.044c2.068-.851,5.041-2.14,7.434-2.347a8.55,8.55,0,0,1,3.585.587c.932.311,3.28,1.634,3.131-.261-.083-1.061-1.684-1.035-2.282-1.5C2535.721,330.93,2539.2,332.571,2541.779,334.627Zm27.844,54.577c-2.759-7.018-4.8-14.814-11.282-18-2.247-1.1-5.109-1-8.542-1.237a18.345,18.345,0,0,0,.781-9,29.019,29.019,0,0,0-1.759-5.932,7.936,7.936,0,0,1-.653-1.957,9.064,9.064,0,0,1,.587-1.7,18.08,18.08,0,0,0,.261-6.456c-.916-8.277-5.443-13.035-12.715-15.127.311-2.349.64-4.941,1.825-6.717a8.639,8.639,0,0,1,7.3-3.521c2.359.263,3.812,2.82,4.89,4.7a25.3,25.3,0,0,1,2.608,5.543c1.307,4.374,2.064,8.85,3.587,12.651,2.4,5.978,7.667,8.268,13.171,11.149a24.474,24.474,0,0,0,2.674,1.37,11.024,11.024,0,0,1,2.869,1.24c2.065,1.663,1.707,6.963.586,9.193-.276.55-.848,1.2-.718,1.826.1.449.82.731,1.435.978,3.048,1.217,5.583,2.54,5.868,6.259.336,4.352-1.615,7.419-3.978,9.781A22.246,22.246,0,0,1,2569.623,389.2Zm-52.754,80.269c-.221-.082-.3-.309-.39-.521a1.446,1.446,0,0,1,.39-.13Zm15.911-2.412c-1.029,2.047-2.046,4.109-3.195,6.063a10.835,10.835,0,0,1-1.891,2.74,3.564,3.564,0,0,1-2.281.977c-1.262-.055-2.588-1.133-3.587-1.825a7.478,7.478,0,0,1-2.739-2.673c-.667-1.624-.175-3.7,0-5.544,4.361-.988,9.791-2.347,14.281-3.128.193-.035.308.165.456.131C2534.065,464.974,2533.281,466.063,2532.779,467.062ZM2476.7,455.91c-1.683,3.773-3.343,7.568-3,13.368-2.613-.558-5.2-1.183-7.043-2.87-1.249-1.142-2.8-3.267-2.74-5.281.053-1.889,1.674-3.261,2.936-4.172a8.628,8.628,0,0,1,3.912-1.763C2473.038,454.949,2474.673,455.752,2476.7,455.91Z" transform="translate(-2454.107 -317.579)" fill="#191919" fill-rule="evenodd"/>
              </g>
              <g id="Grupo_253" data-name="Grupo 253" transform="translate(73.26 41.132)">
                <path id="Caminho_156" data-name="Caminho 156" d="M2649.476,424.932c-.715-.2-1.155.386-1.957.784-.836.412-2.273.367-2.283,1.432-.012,1.6,2.323.758,3.26.263.534-.282,1.57-.692,1.632-1.5A.87.87,0,0,0,2649.476,424.932Z" transform="translate(-2645.237 -424.891)" fill="#191919" fill-rule="evenodd"/>
              </g>
            </g>
            <g id="Grupo_256" data-name="Grupo 256" transform="translate(122.241 89.904)">
              <g id="Grupo_255" data-name="Grupo 255" transform="translate(0 0)">
                <path id="Caminho_157" data-name="Caminho 157" d="M2715.709,514.035a.979.979,0,0,1-.977-.931c-.105-2.187,3.423-4.606,4.945-5.544,1.892-1.168,7.881-4.2,10.5-2.867a.978.978,0,0,1-.89,1.742c-1.141-.583-5.311.773-8.579,2.79-3.112,1.919-4.035,3.446-4.018,3.785a.979.979,0,0,1-.931,1.024Z" transform="translate(-2714.73 -504.359)" fill="#191919"/>
              </g>
            </g>
            <g id="Grupo_261" data-name="Grupo 261" transform="translate(119.671 139.959)">
              <g id="Grupo_258" data-name="Grupo 258" transform="translate(0.979 0.978)">
                <g id="Grupo_257" data-name="Grupo 257">
                  <path id="Caminho_158" data-name="Caminho 158" d="M2710.577,640.761l4.173,17.805a3.259,3.259,0,0,0,3.261,3.26h21.13a3.26,3.26,0,0,0,3.261-3.26l4.108-17.805c0-1.8-1.9-3.26-4.237-3.26h-27.458C2712.474,637.5,2710.577,638.962,2710.577,640.761Z" transform="translate(-2710.577 -637.501)" fill="#fff"/>
                </g>
              </g>
              <g id="Grupo_260" data-name="Grupo 260">
                <g id="Grupo_259" data-name="Grupo 259">
                  <path id="Caminho_159" data-name="Caminho 159" d="M2737.566,661.231h-21.129a4.244,4.244,0,0,1-4.238-4.118l-4.148-17.7a.9.9,0,0,1-.028-.223c0-2.337,2.34-4.239,5.217-4.239H2740.7c2.875,0,5.215,1.9,5.215,4.239a.971.971,0,0,1-.025.22l-4.085,17.7A4.245,4.245,0,0,1,2737.566,661.231Zm-27.582-22.143,4.144,17.681a1.041,1.041,0,0,1,.025.223,2.284,2.284,0,0,0,2.283,2.282h21.129a2.285,2.285,0,0,0,2.283-2.282.992.992,0,0,1,.025-.22l4.08-17.683c-.076-1.194-1.537-2.184-3.256-2.184H2713.24C2711.521,636.906,2710.062,637.9,2709.985,639.088Z" transform="translate(-2708.024 -634.949)" fill="#191919"/>
                </g>
              </g>
            </g>
            <g id="Grupo_263" data-name="Grupo 263" transform="translate(143.85 77.703)">
              <g id="Grupo_262" data-name="Grupo 262">
                <path id="Caminho_160" data-name="Caminho 160" d="M2772.422,539a1.252,1.252,0,0,1-1.3-1.088c-.2-1.4,1.054-3.327,2.953-6.239,2.974-4.557,7.467-11.444,7.537-18.951.118-12.867.436-18.985,6.717-29.165,7.514-12.181,15.693-12.1,21.231-9.884a8.172,8.172,0,0,1,5.229,7.387,9.851,9.851,0,0,1-4.8,9.181c-.617.338-1.215.649-1.792.949-5.415,2.819-8.991,4.682-11.13,19.51l-.968-.14.968.14c-.89,6.182-7.657,13.988-11.612,18.091C2781.659,532.738,2774.757,539,2772.422,539Zm31.471-64.523c-5.088,0-9.745,3.381-13.895,10.107-6.019,9.757-6.307,15.345-6.426,28.156-.074,8.078-4.756,15.254-7.854,20a41.386,41.386,0,0,0-2.347,3.864,61.266,61.266,0,0,0,10.844-9.341c6.354-6.627,10.335-12.767,10.922-16.844,2.281-15.82,6.427-17.978,12.163-20.966.568-.3,1.157-.6,1.757-.931a7.971,7.971,0,0,0,3.782-7.347,6.28,6.28,0,0,0-4-5.688A13.281,13.281,0,0,0,2803.894,474.477Z" transform="translate(-2771.106 -472.529)" fill="#191919"/>
              </g>
            </g>
            <g id="Grupo_264" data-name="Grupo 264" transform="translate(77.37 86.267)">
              <path id="Caminho_161" data-name="Caminho 161" d="M2605.561,500.712a.98.98,0,0,1-.663-.258c-2.8-2.572-5.213-3.784-6.068-3.614a.978.978,0,0,1-.377-1.92c2.466-.481,6.254,2.7,7.77,4.093a.978.978,0,0,1-.662,1.7Z" transform="translate(-2597.665 -494.871)" fill="#191919"/>
            </g>
            <g id="Grupo_269" data-name="Grupo 269" transform="translate(116.503 134.904)">
              <g id="Grupo_266" data-name="Grupo 266" transform="translate(0.978 0.978)">
                <g id="Grupo_265" data-name="Grupo 265">
                  <path id="Caminho_162" data-name="Caminho 162" d="M2703.388,625.621l-1.076,7.5a1.3,1.3,0,0,0,1.3,1.3h40.889a1.3,1.3,0,0,0,1.3-1.3l-1.078-7.5a1.273,1.273,0,0,0-1.238-1.306h-38.865A1.274,1.274,0,0,0,2703.388,625.621Z" transform="translate(-2702.312 -624.315)" fill="#fff"/>
                </g>
              </g>
              <g id="Grupo_268" data-name="Grupo 268">
                <g id="Grupo_267" data-name="Grupo 267">
                  <path id="Caminho_163" data-name="Caminho 163" d="M2742.93,633.83h-40.888a2.285,2.285,0,0,1-2.282-2.283c.009-.139,1.078-7.579,1.078-7.579a2.25,2.25,0,0,1,2.216-2.2h38.864a2.254,2.254,0,0,1,2.218,2.2l1.067,7.44A2.305,2.305,0,0,1,2742.93,633.83Zm-41.212-2.237a.329.329,0,0,0,.323.28h40.888a.328.328,0,0,0,.323-.28l-1.064-7.407c-.01-.317-.129-.466-.271-.466h-38.864a.3.3,0,0,0-.261.327C2702.783,624.186,2701.718,631.593,2701.718,631.593Z" transform="translate(-2699.759 -621.763)" fill="#191919"/>
                </g>
              </g>
            </g>
            <g id="Grupo_271" data-name="Grupo 271" transform="translate(23.636 107.445)">
              <g id="Grupo_270" data-name="Grupo 270">
                <path id="Caminho_164" data-name="Caminho 164" d="M2491.95,600.794s-26.456-5.961-31.563-12-3.411-15.779,4.436-21.716,46.106,8.086,46.106,8.086l16.108-25.042,21.847.326,9.586,11.216-12.522,6.391s-8.2-7.064-10.042-8.151-2.587.089-5.282,1.955-2.736,3.23-1.5,3.719,4.5-2.089,4.5-2.089l1.826,1.435s-5.345,5.153-6.26,7.7,4.573,4.324,8.086,4.89,6.391-2.935,6.391-2.935a10.375,10.375,0,0,0,6.064,2.021,10.409,10.409,0,0,1,5.8,1.63l11.739-3.846s6.491,11.763,8.347,16.3.138,11.305-4.108,15.651-18.139,5.74-22.63,5.023-12.717-4.761-12.717-4.761l-23.412,4.63a13.142,13.142,0,0,1-6.531-8.26c-1.5-5.909,3.531-9.871,3.531-9.871Z" transform="translate(-2457.475 -550.122)" fill="#191919" fill-rule="evenodd"/>
              </g>
            </g>
            <g id="Grupo_273" data-name="Grupo 273" transform="translate(42.499 156.366)">
              <g id="Grupo_272" data-name="Grupo 272">
                <path id="Caminho_165" data-name="Caminho 165" d="M2521.1,680.69l4.727-2.3s-2.262,2.453-.509,7.867c1.445,4.467,6.507,6.525,6.507,6.525l-4.008,1.085-21.129-1.435a41.863,41.863,0,0,1,.653-7.891,35.811,35.811,0,0,1,2.346-6.782Z" transform="translate(-2506.69 -677.755)" fill="#191919" fill-rule="evenodd"/>
              </g>
            </g>
            <g id="Grupo_275" data-name="Grupo 275" transform="translate(97.015 50.593)">
              <g id="Grupo_274" data-name="Grupo 274" transform="translate(0 0)">
                <path id="Caminho_166" data-name="Caminho 166" d="M2651.851,403.267v1.956a1.467,1.467,0,0,1-2.935,0v-1.956a1.467,1.467,0,1,1,2.935,0Z" transform="translate(-2648.917 -401.8)" fill="#191919" fill-rule="evenodd"/>
              </g>
            </g>
            <g id="Grupo_277" data-name="Grupo 277" transform="translate(88.384 51.394)">
              <g id="Grupo_276" data-name="Grupo 276" transform="translate(0 0)">
                <path id="Caminho_167" data-name="Caminho 167" d="M2629.333,405.358v1.955a1.467,1.467,0,1,1-2.934,0v-1.955a1.467,1.467,0,1,1,2.934,0Z" transform="translate(-2626.398 -403.891)" fill="#191919" fill-rule="evenodd"/>
              </g>
            </g>
            <g id="Grupo_297" data-name="Grupo 297" transform="translate(163.302 139.333)">
              <g id="Grupo_279" data-name="Grupo 279" transform="translate(2.804 5.604)">
                <g id="Grupo_278" data-name="Grupo 278">
                  <path id="Caminho_168" data-name="Caminho 168" d="M2829.17,649.306l2.151,21.261a1.3,1.3,0,0,0,1.3,1.3h11.737a1.3,1.3,0,0,0,1.3-1.3l2.152-21.261c0-1.8-1.9-1.3-4.238-1.3h-10.171C2831.067,648,2829.17,647.5,2829.17,649.306Z" transform="translate(-2829.17 -647.939)" fill="#191919" fill-rule="evenodd"/>
                </g>
              </g>
              <g id="Grupo_284" data-name="Grupo 284" transform="translate(2.054 12.862)">
                <g id="Grupo_281" data-name="Grupo 281" transform="translate(0.974 0.978)">
                  <g id="Grupo_280" data-name="Grupo 280">
                    <path id="Caminho_169" data-name="Caminho 169" d="M2829.753,669.9l.69,7.338c0,.249.7.449,1.564.449h14.075c.864,0,1.563-.2,1.563-.449l.755-7.338c0-.623-1.9-.451-4.237-.451h-10.171C2831.651,669.447,2829.753,669.275,2829.753,669.9Z" transform="translate(-2829.753 -669.425)" fill="#fff"/>
                  </g>
                </g>
                <g id="Grupo_283" data-name="Grupo 283">
                  <g id="Grupo_282" data-name="Grupo 282">
                    <path id="Caminho_170" data-name="Caminho 170" d="M2844.514,677.089h-14.076c-1.58,0-2.5-.5-2.54-1.366l-.686-7.307a1.29,1.29,0,0,1,.37-.985c.6-.591,1.662-.575,3.589-.548.4.006.817.012,1.253.012H2842.6c.436,0,.857-.006,1.252-.012,1.926-.027,2.988-.043,3.587.548a1.248,1.248,0,0,1,.376.893c0,.1-.758,7.4-.758,7.4C2847.009,676.594,2846.089,677.089,2844.514,677.089Zm-14.712-2.006a3.8,3.8,0,0,0,.636.049h14.076a3.808,3.808,0,0,0,.639-.05l.641-6.227c-.483-.037-1.259-.025-1.918-.016-.4.006-.834.012-1.28.012h-10.171c-.446,0-.877-.007-1.282-.012-.661-.009-1.441-.021-1.924.017Z" transform="translate(-2827.212 -666.873)" fill="#191919"/>
                  </g>
                </g>
              </g>
              <g id="Grupo_291" data-name="Grupo 291" transform="translate(3.36)">
                <g id="Grupo_286" data-name="Grupo 286" transform="translate(0.978 0.979)">
                  <g id="Grupo_285" data-name="Grupo 285">
                    <path id="Caminho_171" data-name="Caminho 171" d="M2848.75,638.513l-.606-1.867c0-.428-.584-.775-1.3-.775h-11.753c-.722,0-1.307.347-1.307.775l-.606,1.867c0,1.072,1.586.775,3.541.775h8.5C2847.166,639.288,2848.75,639.585,2848.75,638.513Z" transform="translate(-2833.174 -635.871)" fill="#fff"/>
                  </g>
                </g>
                <g id="Grupo_288" data-name="Grupo 288" transform="translate(0.978 0.979)">
                  <g id="Grupo_287" data-name="Grupo 287">
                    <path id="Caminho_172" data-name="Caminho 172" d="M2848.75,638.513l-.606-1.867c0-.428-.584-.775-1.3-.775h-11.753c-.722,0-1.307.347-1.307.775l-.606,1.867c0,1.072,1.586.775,3.541.775h8.5C2847.166,639.288,2848.75,639.585,2848.75,638.513Z" transform="translate(-2833.174 -635.871)" fill="#f1ebf4" fill-rule="evenodd"/>
                  </g>
                </g>
                <g id="Grupo_290" data-name="Grupo 290">
                  <g id="Grupo_289" data-name="Grupo 289">
                    <path id="Caminho_173" data-name="Caminho 173" d="M2845.526,638.729c-.271,0-.557-.009-.858-.018-.325-.009-.672-.02-1.032-.02h-8.5c-.359,0-.705.01-1.031.02-1.308.038-2.341.07-3-.571a1.625,1.625,0,0,1-.487-1.2,1,1,0,0,1,.048-.3l.57-1.758a2.1,2.1,0,0,1,2.273-1.56h11.751a2.092,2.092,0,0,1,2.272,1.56l.57,1.758a.963.963,0,0,1,.048.3,1.621,1.621,0,0,1-.486,1.2A2.922,2.922,0,0,1,2845.526,638.729Zm-10.386-1.994h8.5c.38,0,.746.011,1.091.021a12.955,12.955,0,0,0,1.362,0l-.448-1.379a.6.6,0,0,0-.376-.1h-11.751a1,1,0,0,0-.365.062l-.461,1.415a12.613,12.613,0,0,0,1.363,0C2834.4,636.746,2834.76,636.735,2835.14,636.735Z" transform="translate(-2830.621 -633.318)" fill="#191919"/>
                  </g>
                </g>
              </g>
              <g id="Grupo_296" data-name="Grupo 296" transform="translate(0 2.559)">
                <g id="Grupo_293" data-name="Grupo 293" transform="translate(0.979 0.979)">
                  <g id="Grupo_292" data-name="Grupo 292">
                    <path id="Caminho_174" data-name="Caminho 174" d="M2846.706,646.985l-.868-3.134c0-.719-.837-1.3-1.87-1.3h-16.823c-1.034,0-1.871.584-1.871,1.3l-.865,3.134c0,1.8,2.268,1.3,5.067,1.3h12.161C2844.437,648.289,2846.706,648.784,2846.706,646.985Z" transform="translate(-2824.408 -642.548)" fill="#fff"/>
                  </g>
                </g>
                <g id="Grupo_295" data-name="Grupo 295">
                  <g id="Grupo_294" data-name="Grupo 294">
                    <path id="Caminho_175" data-name="Caminho 175" d="M2842.767,647.755c-.385,0-.794-.014-1.227-.029-.477-.017-.969-.033-1.479-.033H2827.9c-.509,0-1,.017-1.478.033-1.728.06-3.094.107-3.941-.712a2.137,2.137,0,0,1-.626-1.6,1.011,1.011,0,0,1,.035-.261l.837-3.028a2.632,2.632,0,0,1,2.842-2.126h16.825a2.631,2.631,0,0,1,2.842,2.126l.838,3.029a.97.97,0,0,1,.035.261,2.139,2.139,0,0,1-.625,1.6A3.737,3.737,0,0,1,2842.767,647.755Zm-18.95-2.235c.227.33,1.674.28,2.538.251.493-.017,1-.034,1.546-.034h12.162c.544,0,1.052.017,1.546.034a6.525,6.525,0,0,0,2.517-.165c.021-.086-.8-3.069-.8-3.069a1,1,0,0,1-.036-.261,1.11,1.11,0,0,0-.891-.324h-16.825a1.065,1.065,0,0,0-.893.338.875.875,0,0,1-.034.247Z" transform="translate(-2821.854 -639.995)" fill="#191919"/>
                  </g>
                </g>
              </g>
            </g>
            <g id="Grupo_304" data-name="Grupo 304" transform="translate(44.982 132.804)">
              <g id="Grupo_299" data-name="Grupo 299" transform="translate(0.979 0.978)">
                <g id="Grupo_298" data-name="Grupo 298">
                  <path id="Caminho_176" data-name="Caminho 176" d="M2562.02,627.433l-43.039.142a3.262,3.262,0,0,1-3.261-3.261V622.1a3.26,3.26,0,0,1,3.261-3.26h62.906Z" transform="translate(-2515.72 -618.835)" fill="#fff"/>
                </g>
              </g>
              <g id="Grupo_301" data-name="Grupo 301">
                <g id="Grupo_300" data-name="Grupo 300">
                  <path id="Caminho_177" data-name="Caminho 177" d="M2562.02,627.433l-43.039.142a3.262,3.262,0,0,1-3.261-3.261V622.1a3.26,3.26,0,0,1,3.261-3.26h62.906Z" transform="translate(-2514.741 -617.857)" fill="#fff"/>
                  <path id="Caminho_178" data-name="Caminho 178" d="M2517.41,626.979a4.244,4.244,0,0,1-4.243-4.239v-2.219a4.244,4.244,0,0,1,4.24-4.239h62.9a.978.978,0,0,1,.39,1.876l-19.867,8.6a.983.983,0,0,1-.386.081Zm0-8.739a2.286,2.286,0,0,0-2.284,2.282v2.219a2.286,2.286,0,0,0,2.284,2.282l42.834-.141,15.348-6.642Z" transform="translate(-2513.167 -616.283)" fill="#191919"/>
                </g>
              </g>
              <g id="Grupo_303" data-name="Grupo 303">
                <g id="Grupo_302" data-name="Grupo 302">
                  <path id="Caminho_179" data-name="Caminho 179" d="M2517.41,626.979a4.244,4.244,0,0,1-4.243-4.239v-2.219a4.244,4.244,0,0,1,4.24-4.239h62.9a.978.978,0,0,1,.39,1.876l-19.867,8.6a.983.983,0,0,1-.386.081Zm0-8.739a2.286,2.286,0,0,0-2.284,2.282v2.219a2.286,2.286,0,0,0,2.284,2.282l42.834-.141,15.348-6.642Z" transform="translate(-2513.167 -616.283)" fill="#191919"/>
                </g>
              </g>
            </g>
            <g id="Grupo_309" data-name="Grupo 309" transform="translate(27.048 98.714)">
              <g id="Grupo_306" data-name="Grupo 306" transform="translate(0.976 0.979)">
                <g id="Grupo_305" data-name="Grupo 305">
                  <path id="Caminho_180" data-name="Caminho 180" d="M2469.03,534.377l12.084,31.044a4.729,4.729,0,0,0,4.1,2.772l46.287.07c1.671,0,3.746-2.961,3.151-4.489l-12.088-31.033a4.724,4.724,0,0,0-4.1-2.77l-46.3-.072C2470.5,529.9,2468.435,532.849,2469.03,534.377Z" transform="translate(-2468.925 -529.899)" fill="#fff"/>
                </g>
              </g>
              <g id="Grupo_308" data-name="Grupo 308" transform="translate(0 0)">
                <g id="Grupo_307" data-name="Grupo 307">
                  <path id="Caminho_181" data-name="Caminho 181" d="M2529.936,567.666l-46.292-.07a5.706,5.706,0,0,1-5.012-3.4l-12.085-31.044a4.143,4.143,0,0,1,.79-3.672,4.3,4.3,0,0,1,3.259-2.139l46.3.072a5.7,5.7,0,0,1,5.013,3.393L2534,561.844a4.148,4.148,0,0,1-.794,3.675A4.312,4.312,0,0,1,2529.936,567.666ZM2470.6,529.3a2.672,2.672,0,0,0-1.643,1.288,2.517,2.517,0,0,0-.583,1.857l12.085,31.044a3.733,3.733,0,0,0,3.193,2.149l46.287.07a2.7,2.7,0,0,0,1.652-1.3,2.533,2.533,0,0,0,.584-1.859l-12.085-31.033a3.736,3.736,0,0,0-3.194-2.147l-46.3-.072Z" transform="translate(-2466.377 -527.346)" fill="#191919"/>
                </g>
              </g>
            </g>
            <g id="Grupo_311" data-name="Grupo 311" transform="translate(63.257 150.204)">
              <g id="Grupo_310" data-name="Grupo 310">
                <path id="Caminho_182" data-name="Caminho 182" d="M2572.408,684.844c-5.141,0-10.479-4.973-11.42-10.641a9.383,9.383,0,0,1,1.823-7.47,10.86,10.86,0,0,1,7.714-3.849,5.542,5.542,0,0,1,4.936-.973c3.123,1.263,3.489,5.352,3.812,8.96.1,1.076.187,2.092.34,3.011a9.117,9.117,0,0,0,1.975,3.326c1.044,1.333,1.945,2.484,1.736,3.63a1.847,1.847,0,0,1-.914,1.264A28.468,28.468,0,0,1,2572.408,684.844Zm-9.49-10.961c.782,4.713,5.305,9,9.49,9a26.733,26.733,0,0,0,8.982-2.455,8.713,8.713,0,0,0-1.343-2.018,10.3,10.3,0,0,1-2.363-4.211c-.165-.992-.265-2.093-.36-3.159-.285-3.2-.58-6.505-2.595-7.32a3.644,3.644,0,0,0-3.1.8.979.979,0,0,1-.629.287,9.044,9.044,0,0,0-6.655,3.139,7.456,7.456,0,0,0-1.427,5.935Z" transform="translate(-2560.845 -661.679)" fill="#191919"/>
              </g>
            </g>
            <g id="Grupo_313" data-name="Grupo 313" transform="translate(71.026 148.353)">
              <g id="Grupo_312" data-name="Grupo 312">
                <path id="Caminho_183" data-name="Caminho 183" d="M2592.6,679.28c-5.059,0-10.105-4.95-11.249-11.035a10.616,10.616,0,0,1,1.835-8.792,7.1,7.1,0,0,1,5.561-2.6c5.059,0,10.1,4.95,11.25,11.035a10.621,10.621,0,0,1-1.836,8.793A7.1,7.1,0,0,1,2592.6,679.28Zm-3.853-20.474a5.111,5.111,0,0,0-4.055,1.9,8.7,8.7,0,0,0-1.418,7.182c.979,5.205,5.163,9.44,9.327,9.44a5.113,5.113,0,0,0,4.055-1.9,8.7,8.7,0,0,0,1.419-7.182C2597.1,663.04,2592.913,658.806,2588.749,658.806Z" transform="translate(-2581.115 -656.849)" fill="#191919"/>
              </g>
            </g>
            <g id="Grupo_315" data-name="Grupo 315" transform="translate(59.125 154.728)">
              <g id="Grupo_314" data-name="Grupo 314">
                <path id="Caminho_184" data-name="Caminho 184" d="M2558.189,690.219c-3.716,0-7.223-3.606-7.983-8.21a8.161,8.161,0,0,1,1.506-6.639,5.229,5.229,0,0,1,4.038-1.888.978.978,0,0,1,0,1.956,3.255,3.255,0,0,0-2.546,1.2,6.312,6.312,0,0,0-1.068,5.055c.589,3.563,3.361,6.573,6.053,6.573a.978.978,0,0,1,0,1.956Z" transform="translate(-2550.065 -673.482)" fill="#191919"/>
              </g>
            </g>
            <g id="Grupo_316" data-name="Grupo 316" transform="translate(95.442 121.6)">
              <path id="Caminho_185" data-name="Caminho 185" d="M2646.238,592.512s-1.474,2.933-1.425,3.078.086,1.229.41,1.446a8.111,8.111,0,0,0,1.592,1.122c.653.252.759.779,2.116,1.077s3.635,1.237,3.89,1.237a7.742,7.742,0,0,0,2.313-1.085,19.383,19.383,0,0,1,2.531-1.737,23.876,23.876,0,0,0,2.569-1.337,6.352,6.352,0,0,0,1.263-2.242c-.07-.145-4.12-4.559-4.12-4.559l-5.787-2.459Z" transform="translate(-2644.812 -587.053)" fill="#fff"/>
            </g>
            <g id="Grupo_317" data-name="Grupo 317" transform="translate(92.997 116.08)">
              <path id="Caminho_186" data-name="Caminho 186" d="M2640.911,580.544a2.367,2.367,0,0,1-2.478-2.086c0-.843.761-1.518,1.24-2.021a19.266,19.266,0,0,1,1.695-1.63c1.182-.977,2.6-2.233,4.5-2.151a7.576,7.576,0,0,1,3.456,1.565,94.381,94.381,0,0,1,8.412,6.782c1.465-.777,2.965-1.52,4.469-2.258v2.16q-.892.436-1.794.879c-.8.393-2.16,1.372-3,1.3-.807-.065-2.034-1.539-2.8-2.217a60.517,60.517,0,0,0-5.609-4.5c-.925-.654-2.264-1.768-3.326-1.76-1.135.006-2.269,1.035-3,1.629a16.052,16.052,0,0,0-1.174,1.11c-.364.362-1.024.714-.848,1.237a8.926,8.926,0,0,0,2.282-1.042c.626-.363,1.455-1.161,2.216-1.174a7,7,0,0,1,2.217.651,1.518,1.518,0,0,1,.978,1.175c0,.675-1.091,1.536-1.695,2.086a29.775,29.775,0,0,0-3.782,3.848c-.763.981-2.047,2.579-.651,3.391a34.469,34.469,0,0,1,5.086-6.195c.443-.391,1.443-1.624,2.412-1.37a1,1,0,0,1,.586.719c.132.927-1.134,1.65-1.564,2.021a25.229,25.229,0,0,0-4.891,6,11.4,11.4,0,0,0,1.565.719c1.782-1.756,3.925-3.742,5.934-5.609.459-.428,1.353-1.754,2.347-1.566a1.049,1.049,0,0,1,.717.849c.049.8-1.138,1.626-1.5,1.956-.71.649-1.289,1.18-1.827,1.7a27.857,27.857,0,0,0-3.456,3.391c3.086.433,4.422-1.891,6.521-2.868.773-.245,3.159-2.088,3.391-.328.105.807-.554.888-.718,1.3.753.092,1.352,1.07,2.282,1.175a20.334,20.334,0,0,0,2.152-.261,8.8,8.8,0,0,1,.948.042v1.962a13.377,13.377,0,0,0-4.142.473,45.583,45.583,0,0,0-7.93,2.983h-4.793c3.551-1.576,7.147-3.106,10.832-4.547a9.851,9.851,0,0,0-1.564-.782c-2.157,1.472-4.425,3.454-7.826,2.607-2.776-.69-5.776-2-6.847-4.172-1.1-2.227,1.113-4.4,2.283-5.739.874-1,1.736-1.832,2.607-2.672.267-.256.79-.582.652-.849C2644.091,578.606,2642.666,580.444,2640.911,580.544Z" transform="translate(-2638.433 -572.651)" fill="#191919" fill-rule="evenodd"/>
            </g>
          </g>
        </g>
      </g>
    </g>
  </g>
</svg>
