<svg xmlns="http://www.w3.org/2000/svg" width="23.594" height="23.597" viewBox="0 0 23.594 23.597">
  <g id="icon-yt" transform="translate(-96.048 103)">
    <path id="Caminho_656" data-name="Caminho 656" d="M595.151,0H583.875a6.167,6.167,0,0,0-6.159,6.16V17.436a6.167,6.167,0,0,0,6.159,6.16h11.276a6.167,6.167,0,0,0,6.159-6.16V6.16A6.167,6.167,0,0,0,595.151,0" transform="translate(-481.668 -103)" fill="#fff"/>
    <path id="Caminho_657" data-name="Caminho 657" d="M626.39,66.561h-8.367a3.394,3.394,0,0,1-3.394-3.394V59.095a3.394,3.394,0,0,1,3.394-3.394h8.367a3.394,3.394,0,0,1,3.393,3.394v4.073a3.394,3.394,0,0,1-3.393,3.394" transform="translate(-514.361 -152.333)" fill="#103046"/>
    <path id="Caminho_658" data-name="Caminho 658" d="M671.092,83.927l-2.054,1.244-2.054,1.244V81.439l2.054,1.244Z" transform="translate(-560.731 -175.128)" fill="#fff"/>
  </g>
</svg>
