<svg xmlns="http://www.w3.org/2000/svg" width="23.596" height="23.596" viewBox="0 0 23.596 23.596">
  <g id="icon-insta" transform="translate(0 -0.001)">
    <path id="Caminho_659" data-name="Caminho 659" d="M17.712,23.6H5.884A5.884,5.884,0,0,1,0,17.716V5.888A5.884,5.884,0,0,1,5.884,0H17.712A5.884,5.884,0,0,1,23.6,5.888V17.716A5.884,5.884,0,0,1,17.712,23.6" transform="translate(0 -0.003)" fill="#fff"/>
    <path id="Caminho_660" data-name="Caminho 660" d="M68.587,73.059a4.467,4.467,0,1,1,4.467-4.467,4.472,4.472,0,0,1-4.467,4.467m0-7.447a2.98,2.98,0,1,0,2.98,2.98,2.983,2.983,0,0,0-2.98-2.98" transform="translate(-56.789 -56.793)" fill="#103046"/>
    <path id="Caminho_661" data-name="Caminho 661" d="M40,44.538h-8.31A4.544,4.544,0,0,1,27.146,40v-8.31a4.544,4.544,0,0,1,4.539-4.539H40a4.544,4.544,0,0,1,4.539,4.539V40A4.544,4.544,0,0,1,40,44.538m-8.31-15.9a3.055,3.055,0,0,0-3.052,3.052V40a3.056,3.056,0,0,0,3.052,3.052H40A3.055,3.055,0,0,0,43.048,40v-8.31A3.055,3.055,0,0,0,40,28.636Z" transform="translate(-24.042 -24.045)" fill="#103046"/>
    <path id="Caminho_662" data-name="Caminho 662" d="M136.432,54.408a1.027,1.027,0,1,1-1.027-1.027,1.027,1.027,0,0,1,1.027,1.027" transform="translate(-119.015 -47.278)" fill="#103046"/>
  </g>
</svg>
